<?xml version="1.0" encoding="UTF-8"?>
<svg id="Layer_2" data-name="Layer 2" xmlns="http://www.w3.org/2000/svg" viewBox="0 0 679.82 158.13">
  <defs>
    <style>
      .cls-1 {
        fill: #fff;
      }
    </style>
  </defs>
  <g id="Layer_1-2" data-name="Layer 1">
    <g>
      <path class="cls-1" d="M302.12,109.48c1.59-2.42,3.18-4.84,4.94-7.51-2.49-.83-4.63-1.74-6.86-2.18-.78-.16-2.07.6-2.62,1.33-1.79,2.35-3.28,4.94-5.04,7.31-.53.72-1.59,1.51-2.39,1.51-9.16-.11-18.32-.36-27.48-.59-.24,0-.48-.23-1.18-.59,3.19-4.58,6.31-9.07,9.86-14.18-3.97,0-7.41-.02-10.84.03-.38,0-.87.39-1.13.74-8.23,10.97-20.07,13.16-32.65,13.19-9.73.02-19.48-.16-29.19-.75-6.99-.43-13.54,1.07-20.23,2.66-18.11,4.29-36.21,8.74-54.5,12.15-10.22,1.91-20.8,1.96-31.22,2.71-13.97,1-27.74-.86-41.4-3.45-17.04-3.24-33.16-9.25-48.75-16.79-1.8-.87-1.78-2.03-.69-3.29,1.92-2.22,4.16-4.17,5.93-6.5,5.16-6.78,10.14-13.7,15.22-20.54,12.03-16.21,24.08-32.39,36.11-48.6,3.07-4.14,6.07-8.34,9.57-13.14-3.16,0-5.81.02-8.45,0-7.79-.07-15.57-.15-23.36-.28-.76-.01-1.52-.39-2.28-.59.3-.81.46-1.72.94-2.4,1.35-1.87,3.08-3.51,4.23-5.49C40.62.86,43.29-.09,47.14,0c25.1.65,50.2,1.06,75.3,1.55.7.01,1.4.12,2.77.24-1.27,2.02-2.5,3.5-3.21,5.19-2.56,6.08-6.97,8.13-13.38,7.08-3.08-.51-6.3-.04-9.44-.3-1.91-.16-3.15.42-4.23,1.91-6.7,9.21-13.44,18.39-20.17,27.58-9.26,12.62-18.53,25.24-27.79,37.85-2.08,2.84-4.26,5.61-6.2,8.54-5.08,7.71-12.87,10.79-21.35,12.77-1.05.25-2.12.43-3.7.74.82.64,1.17,1.05,1.61,1.24,13.7,6.1,27.99,10.3,42.81,12.46,15.65,2.28,31.36,2.5,47.06.41,10.81-1.44,21.64-2.83,32.36-4.84,9.43-1.76,18.71-4.36,28.06-6.57,5.66-1.34,11.35-2.59,16.99-4.02.94-.24,1.96-.99,2.53-1.79,15.92-22.4,31.79-44.83,47.66-67.27,4.38-6.19,8.6-12.5,13.14-18.57,1.26-1.69,3.29-2.91,5.15-4.03,7.43-4.46,15.48-5.88,24.13-5.54,12.08.48,24.18.33,36.27.48,15.66.2,31.32.39,46.98.64,11.79.19,23.58.54,35.37.73,8.49.14,16.99.12,25.49.25,2.11.03,4.26.23,6.32.66,4.23.89,5.91,3.8,4.32,7.89-.85,2.19-2.42,4.11-3.74,6.1-11.37,17.12-22.71,34.26-34.16,51.33-8.4,12.52-16.93,24.96-25.47,37.39-.49.72-1.58,1.49-2.37,1.47-8.52-.23-17.03-.62-25.55-.98-.14,0-.28-.2-.82-.62,20.7-31.27,41.96-62.21,62.58-93.78-5.53-2.13-7.62-1.57-10.26,2.38-8.5,12.69-16.93,25.42-25.47,38.08-6.05,8.97-12.24,17.85-18.35,26.79-4.9,7.18-9.75,14.41-14.66,21.58-.97,1.42-.92,2.27.64,3.36,5.83,4.07,11.55,8.3,17.28,12.51,1.4,1.02.95,3.61-.84,5.91-1.35,1.74-2.08.37-3.1-.41-5.34-4.11-10.78-8.08-16.07-12.25-5.08-4-11.08-3.61-16.95-3.82-4.04-.15-8.1-.03-12.14-.03-.14-.28-.28-.57-.42-.85ZM264.36,88.14c3.35.22,6.27.53,9.18.53.94,0,2.22-.56,2.76-1.29,3.65-5,7.16-10.11,10.67-15.2,10.23-14.84,20.45-29.69,30.66-44.53,2.99-4.34,6.03-8.65,8.93-13.05,1.56-2.37,1.27-4.82-.45-5.93-3.49-2.25-5.24-2.1-7.22.74-4.28,6.14-8.5,12.32-12.76,18.47-10.17,14.67-20.35,29.33-30.52,43.99-3.72,5.37-7.43,10.75-11.25,16.28ZM221.9,93.2c3.6-.71,6.49-1.17,9.32-1.88,1.12-.28,2.44-.87,3.08-1.75,5.07-7.05,9.98-14.22,14.96-21.33,10.24-14.63,20.5-29.25,30.75-43.87,2.42-3.44,4.84-6.88,7.33-10.41-4.4-1.35-9.92.45-12.39,3.92-9.43,13.26-18.82,26.54-28.23,39.81-7.7,10.87-15.41,21.73-23.1,32.61-.5.71-.89,1.5-1.71,2.9ZM302.86,93.54c2.13.76,4.11,1.43,6.05,2.17,1.43.54,2.36.23,3.25-1.12,7.49-11.33,15.02-22.63,22.59-33.9,7.74-11.51,15.54-22.98,23.3-34.48,2.01-2.98,4.09-5.93,5.9-9.04.42-.72.26-2.56-.28-2.92-1.96-1.31-5.92-.09-7.28,1.89-3.8,5.56-7.6,11.12-11.44,16.66-9.12,13.15-18.26,26.28-27.38,39.43-4.84,6.98-9.65,13.97-14.72,21.31Z"/>
      <path class="cls-1" d="M496.93,113.42h-37.39c-.1-.32-.2-.64-.3-.97,1.91-2.79,3.81-5.59,5.73-8.37,11.42-16.53,22.88-33.03,34.26-49.59,8.07-11.73,15.86-23.66,24.19-35.21,1.92-2.66,5.32-4.5,8.39-6.01,7.57-3.73,15.83-4.34,24.12-4.34,1.98,0,2.13.93,1.07,2.48-17.35,25.37-34.67,50.77-52.01,76.15-3.39,4.97-6.88,9.87-10.31,14.82-.44.64-.75,1.37-1.16,2.13,4.91,1.17,11.19-1.05,13.59-4.6,12.96-19.15,25.94-38.29,38.88-57.45,6.98-10.34,13.88-20.73,20.94-31.02.71-1.04,2.29-2.1,3.47-2.1,12.79.04,25.58.29,38.37.51.5,0,1,.2,1.56.88-2,.45-4.01.87-6,1.37-7.97,2.01-12.67,7.77-16.92,14.31-8.37,12.89-17.02,25.59-25.55,38.38-8.06,12.1-16.09,24.22-24.18,36.3-9.48,14.16-18.93,28.34-28.53,42.41-4.76,6.97-12.19,9.57-20,11.38-7.7,1.78-15.5.95-23.25.84-10.75-.14-21.5-.48-32.25-.76-.87-.02-1.73-.18-3.06-.32,4.41-6.43,8.5-12.44,12.67-18.4.28-.41,1.1-.63,1.66-.62,8.23.08,16.46.2,24.68.35.71.01,1.4.32,2.36.55-1.24,1.73-2.34,3.26-3.46,4.83,3.54,1.78,10.64-.16,13.05-3.7,5.19-7.65,10.38-15.3,15.55-22.95.07-.11-.04-.35-.16-1.28Z"/>
      <path class="cls-1" d="M679.82,11.03c-1.62,2.56-2.92,4.74-4.34,6.85-7.13,10.6-14.31,21.18-21.43,31.79-.95,1.41-1.97,2.25-3.82,2.19-8.43-.25-16.87-.37-25.3-.55-.52-.01-1.04-.14-2.31-.32,7.4-10.88,14.54-21.37,21.69-31.87-3.69-1.57-9.89.32-12.29,3.82-6.64,9.7-13.23,19.44-19.85,29.15-1.02,1.49-2.1,2.94-3.15,4.41l.22.89h40.02c-.88,1.67-1.22,2.47-1.69,3.19-9.77,14.86-19.49,29.75-29.39,44.53-2.98,4.45-7.92,6.27-12.76,7.92-6.56,2.23-13.37,2.82-20.29,2.64-13.9-.38-27.8-.62-41.7-.94-.9-.02-1.8-.12-3.35-.24,1.73-2.59,3.17-4.78,4.64-6.94,6.95-10.28,13.96-20.51,20.82-30.85,1.3-1.96,2.74-2.59,5.01-2.53,8.24.23,16.49.28,24.73.42.35,0,.7.13,1.73.34-7.33,10.74-14.46,21.19-21.61,31.67,4.49,2,11.72-1.37,13.59-4.24,7-10.79,14.06-21.54,21.09-32.31.14-.22.16-.51.49-1.61h-38.51c-.11-.35-.22-.69-.33-1.04,2.85-4.38,5.7-8.76,8.55-13.14,7.2-11.1,14.35-22.23,21.65-33.27,1.08-1.64,2.65-3.13,4.32-4.19,7.56-4.8,15.94-6.95,24.84-6.87,15.48.13,30.96.4,46.44.63.53,0,1.05.2,2.3.46Z"/>
      <path class="cls-1" d="M487.7,55.72c-.85,1.38-1.65,2.8-2.56,4.14-9.07,13.32-18.28,26.55-27.19,39.97-3.28,4.94-7.82,8.19-13.14,9.63-6.28,1.7-12.9,2.81-19.4,2.9-14.45.21-28.91-.37-43.37-.64-.7-.01-1.39-.2-2.61-.38,1.65-2.55,3.02-4.79,4.51-6.94,7.05-10.19,14.15-20.34,21.16-30.56,1.11-1.62,2.32-2.24,4.33-2.21,8.59.13,17.19.06,25.78.06.17.29.34.59.52.88-7.23,10.34-14.45,20.69-21.75,31.14,6.46,1.48,11.39-1.04,15.54-7.27,6.41-9.62,12.97-19.13,19.46-28.7.29-.42.45-.93.99-2.06h-38.86c1.3-2.16,2.07-3.58,2.96-4.91,7.95-11.83,15.92-23.64,23.87-35.46,1.96-2.92,3.86-5.87,5.81-8.79.25-.37.59-.72.97-.96,8.36-5.47,17.55-8.33,27.53-8.28,15.25.08,30.51.31,45.76.49.51,0,1.02.19,2.21.41-1.58,2.35-2.9,4.38-4.29,6.36-7.62,10.92-15.24,21.85-22.92,32.73-.52.74-1.57,1.56-2.38,1.57-9.15.11-18.31.07-27.46.07-.19-.35-.39-.69-.58-1.04,7.34-10.42,14.67-20.85,22.02-31.28-3.48-1.77-10.26.4-12.62,3.79-5.55,7.97-11.2,15.88-16.79,23.83-2.27,3.23-4.48,6.49-7.22,10.47h39.3c.14.34.28.68.42,1.02Z"/>
      <path class="cls-1" d="M244.89,4.41c-2.16,3.08-3.96,5.72-5.84,8.3-8.44,11.59-16.97,23.11-25.31,34.76-1.81,2.53-3.75,3.56-6.89,3.37-6.93-.43-13.89-.47-20.84-.69-.89-.03-1.77-.12-3.35-.24,9.27-12.82,18.2-25.17,27.5-38.04-4.96,0-9.33,0-12.3,3.9-5.1,6.71-10.05,13.53-14.99,20.35-11.78,16.26-23.52,32.56-35.3,48.83-2.28,3.15-4.68,6.21-6.98,9.34-.58.78-1.01,1.67-1.55,2.58,4.59,1.34,10.84-.93,13.29-4.42,4.73-6.75,9.49-13.47,14.42-20.07.81-1.08,2.52-2.1,3.82-2.11,8.24-.05,16.49.2,24.73.36.25,0,.5.17,1.34.48-1.35,1.81-2.62,3.43-3.8,5.11-3.95,5.59-8.02,11.11-11.76,16.84-3.55,5.44-8.84,8.36-14.58,10.5-7.29,2.72-14.98,3.2-22.71,3.02-11.86-.28-23.72-.52-35.58-.8-1.44-.03-2.88-.13-5.1-.24,1.39-2.02,2.38-3.5,3.42-4.95,11.83-16.46,23.7-32.89,35.49-49.38,8.51-11.89,16.93-23.84,25.36-35.79,4.06-5.76,9.83-8.7,16.45-10.49,11.29-3.06,22.76-1.32,34.15-1.43,7.85-.08,15.7.19,23.54.35.94.02,1.88.31,3.36.56Z"/>
      <path class="cls-1" d="M60.94,104.73c22.68-30.43,44.86-60.2,67.26-90.25-1.58-.22-2.88-.41-4.87-.69,1.31-1.95,2.57-3.41,3.36-5.08,2.92-6.22,7.6-7.73,14.26-6.91,7.04.86,14.24.38,21.37.51,1.15.02,2.3.21,4,.38-3.22,4.5-6.11,8.53-9,12.57-11.37,15.88-22.74,31.77-34.12,47.65-7.54,10.53-14.81,21.29-22.81,31.46-2.47,3.13-6.76,5.09-10.56,6.87-8.9,4.16-18.44,4.12-28.91,3.51Z"/>
      <path class="cls-1" d="M426.59,148.5c-1.53.6-2.7.87-3.65,1.47-6.11,3.87-12.79,4.44-19.54,2.76-10.11-2.52-20.1-5.53-30.14-8.33-.62-.17-1.23-.56-1.85-.58-1.18-.03-2.36.13-3.55.21.78.99,1.37,2.51,2.38,2.88,10.69,3.87,21.41,7.7,32.72,9.36,7.96,1.17,15.4-.02,21.92-5.67-1.8,4.23-8.19,7.06-13.77,7.44-10.88.75-20.71-3.23-30.76-6.18-4.06-1.19-7.92-3.05-11.89-4.54-1.76-.66-2.6-1.89-2.15-3.65,1.77-6.87,3.62-13.73,5.57-20.56.15-.51,1.27-1.03,1.96-1.05,12.29-.44,24.54-.26,36.61,2.5.9.21,1.8.45,2.68.73.42.13.79.4,1.47.75-.6.11-.85.21-1.09.2-4.48-.23-4.22-.19-5.12,4.26-.98,4.87-2.41,9.66-3.81,14.43-.45,1.53-.38,2.43,1.23,3.01,4.74,1.72,14.01,2.77,18.18-2.24,1.33-1.6,1.65-3.9,2.16-5.95.4-1.61-4.27-7.31-.88-5.2,3.29,2.49,4.38,7.58,1.33,13.97ZM384.6,123.39c-.01.19.01-.19,0,0-3.13,0-6.27-.13-9.39.08-.86.06-2.07.96-2.38,1.76-1.13,2.92-2.07,5.93-2.8,8.98-.19.79.43,2.34,1.1,2.66,9.43,4.58,19.31,7.83,29.64,9.72,1.6.29,2.26-.38,2.59-1.7,1.46-5.81,2.91-11.61,4.33-17.43.36-1.48-.31-2.17-1.86-2.33-7.06-.72-14.16-.97-21.21-1.75Z"/>
      <path class="cls-1" d="M409.15,126.56c6.49,1.18,13.49,4.9,15.94,11.4.28.74.98,1.24,1.79,1.02.71-.19,1.3-1.05,1.02-1.79-2.81-7.47-10.38-12.05-17.97-13.44-.77-.14-1.57.21-1.79,1.02-.19.71.24,1.65,1.02,1.79h0Z"/>
      <path class="cls-1" d="M354.01,123.29c-1.52,2.77-2.87,5.62-4.09,8.53-.18.43-.03,1.11.2,1.5.24.4.7.79,1.16.89.5.11,1.06.09,1.5-.2s.69-.67.89-1.16c.08-.2.08-.19-.02.04.04-.09.08-.19.12-.28.06-.14.12-.28.18-.43.14-.33.29-.66.44-.99.31-.68.62-1.36.95-2.03.64-1.32,1.32-2.62,2.02-3.91.49-.89.25-2.16-.7-2.66-.91-.48-2.13-.25-2.66.7h0Z"/>
      <path class="cls-1" d="M359.21,124.86c-1.41,3.04-2.27,6.2-2.6,9.53-.1,1.01.96,1.99,1.94,1.94,1.14-.05,1.83-.86,1.94-1.94.02-.21.04-.41.07-.62.06-.53-.07.42.01-.1.05-.36.11-.72.18-1.08.13-.69.29-1.38.47-2.06s.4-1.35.64-2.01c.12-.34.26-.68.39-1.02.2-.49-.17.37.05-.11.09-.19.17-.38.26-.57.43-.92.29-2.14-.7-2.66-.86-.45-2.2-.29-2.66.7h0Z"/>
      <path class="cls-1" d="M365.18,126.63c-.56,1.41-1.13,2.82-1.69,4.23-.59,1.47-1.07,2.91-1.19,4.51-.07,1.02.94,1.99,1.94,1.94,1.11-.05,1.87-.85,1.94-1.94,0-.1.01-.2.02-.3-.04.27-.04.29,0,.07.03-.15.05-.3.09-.45.08-.35.17-.69.28-1.02.21-.65.47-1.28.72-1.92.54-1.36,1.09-2.72,1.63-4.09.17-.44.03-1.11-.2-1.5s-.7-.79-1.16-.89c-1.12-.26-1.98.34-2.39,1.36h0Z"/>
    </g>
  </g>
</svg>